<svg width="22" height="22" viewBox="0 0 22 22" fill="none" xmlns="http://www.w3.org/2000/svg">
<path d="M7.52934 6.05469C8.00034 6.05469 8.42416 6.09547 8.81279 6.17863C9.19903 6.261 9.52849 6.39694 9.80677 6.58486C10.0811 6.77278 10.2954 7.02228 10.4497 7.33574C10.5992 7.64521 10.6736 8.03224 10.6736 8.48965C10.6736 8.98544 10.5616 9.39966 10.3369 9.72992C10.1106 10.061 9.77718 10.3321 9.33257 10.5416C9.93791 10.7167 10.3865 11.023 10.684 11.458C10.9831 11.897 11.1294 12.4224 11.1294 13.0381C11.1294 13.5379 11.0342 13.9673 10.8431 14.328C10.659 14.6832 10.3918 14.9888 10.0643 15.2188C9.72502 15.455 9.34609 15.6284 8.94554 15.7306C8.52556 15.8408 8.09308 15.8962 7.65888 15.8953H2.88892V6.05469H7.52934ZM7.24866 10.0306C7.63249 10.0306 7.95076 9.93943 8.20185 9.75471C8.45135 9.57239 8.57209 9.27172 8.57209 8.85989C8.57209 8.63119 8.53131 8.44247 8.45135 8.29453C8.37344 8.15221 8.25813 8.03387 8.11789 7.95228C7.9711 7.86522 7.80908 7.80687 7.64049 7.78035C7.45672 7.74608 7.27006 7.72974 7.08313 7.73157H5.05599V10.0306H7.24866ZM7.36941 14.22C7.58292 14.22 7.78603 14.2016 7.97715 14.1584C8.16987 14.1169 8.34099 14.0497 8.48653 13.9497C8.63207 13.8538 8.75202 13.7234 8.83838 13.5571C8.92554 13.3924 8.96793 13.1773 8.96793 12.919C8.96793 12.412 8.82479 12.0513 8.54171 11.833C8.25783 11.6171 7.87719 11.51 7.41099 11.51H5.05599V14.2208H7.36941V14.22ZM14.2185 14.1872C14.512 14.4735 14.935 14.6174 15.4851 14.6174C15.8794 14.6174 16.22 14.5175 16.5071 14.3192C16.7902 14.1201 16.9629 13.9073 17.0293 13.6874H18.7526C18.4759 14.5447 18.0561 15.1572 17.4819 15.5259C16.9149 15.8961 16.2248 16.08 15.4188 16.08C14.8574 16.08 14.352 15.9897 13.8994 15.8105C13.465 15.6413 13.0724 15.38 12.7487 15.0445C12.4304 14.7011 12.1843 14.2973 12.025 13.857C11.85 13.3701 11.7633 12.8558 11.7691 12.3384C11.7691 11.8058 11.8579 11.3076 12.0322 10.8478C12.1977 10.4034 12.4518 9.99719 12.7791 9.65395C13.103 9.3181 13.4868 9.05341 13.9338 8.85909C14.4039 8.6614 14.9097 8.56285 15.4196 8.56962C16.0225 8.56962 16.5495 8.68637 17.0021 8.92147C17.441 9.14589 17.8216 9.46951 18.1136 9.86666C18.4039 10.2609 18.611 10.7127 18.7398 11.2189C18.8685 11.7243 18.9133 12.252 18.8765 12.8046H13.7339C13.7347 13.3676 13.9242 13.9009 14.2185 14.1872ZM16.4671 10.444C16.2344 10.1865 15.841 10.0474 15.3596 10.0474C15.0469 10.0474 14.7886 10.0994 14.5807 10.2065C14.3906 10.3025 14.222 10.4361 14.0849 10.5992C13.9646 10.7472 13.8754 10.918 13.8227 11.1013C13.7765 11.2542 13.7468 11.4116 13.7339 11.5707H16.9181C16.8718 11.0717 16.7006 10.7031 16.4671 10.444ZM13.3341 6.71521H17.3236V7.68679H13.3341V6.71521Z" fill="#E3E4E6" fill-opacity="0.55"/>
</svg>
