<svg width="18" height="18" viewBox="0 0 18 18" fill="none" xmlns="http://www.w3.org/2000/svg">
<path d="M7.09512 16.0301H11.3862C14.9621 16.0301 16.3924 14.5998 16.3924 11.0239V6.73281C16.3924 3.15692 14.9621 1.72656 11.3862 1.72656H7.09512C3.51922 1.72656 2.08887 3.15692 2.08887 6.73281V11.0239C2.08887 14.5998 3.51922 16.0301 7.09512 16.0301Z" stroke="#292D32" stroke-width="1.07277" stroke-linecap="round" stroke-linejoin="round"/>
<path d="M11.7939 13.5275V10.7383" stroke="#292D32" stroke-width="1.07277" stroke-miterlimit="10" stroke-linecap="round" stroke-linejoin="round"/>
<path d="M11.7939 5.62507V4.23047" stroke="#292D32" stroke-width="1.07277" stroke-miterlimit="10" stroke-linecap="round" stroke-linejoin="round"/>
<path d="M11.7938 9.34393C12.8207 9.34393 13.6533 8.51142 13.6533 7.48446C13.6533 6.45751 12.8207 5.625 11.7938 5.625C10.7668 5.625 9.93433 6.45751 9.93433 7.48446C9.93433 8.51142 10.7668 9.34393 11.7938 9.34393Z" stroke="#292D32" stroke-width="1.07277" stroke-miterlimit="10" stroke-linecap="round" stroke-linejoin="round"/>
<path d="M6.68726 13.5274V12.1328" stroke="#292D32" stroke-width="1.07277" stroke-miterlimit="10" stroke-linecap="round" stroke-linejoin="round"/>
<path d="M6.68726 7.01966V4.23047" stroke="#292D32" stroke-width="1.07277" stroke-miterlimit="10" stroke-linecap="round" stroke-linejoin="round"/>
<path d="M6.68735 12.133C7.7143 12.133 8.54681 11.3005 8.54681 10.2735C8.54681 9.24657 7.7143 8.41406 6.68735 8.41406C5.66039 8.41406 4.82788 9.24657 4.82788 10.2735C4.82788 11.3005 5.66039 12.133 6.68735 12.133Z" stroke="#292D32" stroke-width="1.07277" stroke-miterlimit="10" stroke-linecap="round" stroke-linejoin="round"/>
</svg>
