<svg width="22" height="22" viewBox="0 0 22 22" fill="none" xmlns="http://www.w3.org/2000/svg">
<path d="M17.3331 10.9449C17.3342 11.7644 17.1728 12.5761 16.8583 13.3329C16.5439 14.0898 16.0825 14.7768 15.501 15.3543C14.9242 15.93 14.2396 16.3865 13.4863 16.6975C12.7331 17.0086 11.9259 17.1681 11.1109 17.1671C7.67436 17.1671 4.88868 14.3814 4.88868 10.9449C4.8865 9.34943 5.49935 7.81453 6.59979 6.65933C7.18043 6.04662 7.87998 5.55885 8.65565 5.22585C9.43131 4.89285 10.2668 4.72162 11.1109 4.72266C11.9259 4.72161 12.7331 4.88117 13.4863 5.19222C14.2396 5.50328 14.9242 5.95974 15.501 6.5355M17.3331 10.9449C17.3342 10.1253 17.1728 9.31367 16.8583 8.55684C16.5439 7.80001 16.0825 7.113 15.501 6.5355M17.3331 10.9449C16.4253 10.9449 13.9209 10.6026 11.6793 11.5866C9.24425 12.6559 7.48118 14.3145 6.71274 15.3461M17.3331 10.9449C17.3331 11.7111 17.1946 12.4447 16.9411 13.1226M15.501 6.5355C14.9531 5.98958 14.3083 5.55033 13.5998 5.2403M8.77756 5.1751C9.75134 6.0739 11.8762 8.36243 12.6664 10.6339C13.4567 12.9056 13.7491 15.6987 13.9296 16.4936M4.93663 10.1671C6.112 10.2381 9.22342 10.3018 11.2145 9.45158C13.2056 8.60131 14.9189 7.03736 15.5066 6.54114M5.35532 13.3134C5.9036 14.6405 6.89243 15.7382 8.15532 16.4217" stroke="#E3E4E6" stroke-opacity="0.55" stroke-width="1.24444" stroke-linecap="round" stroke-linejoin="round"/>
</svg>
