<svg width="46" height="45" viewBox="0 0 46 45" fill="none" xmlns="http://www.w3.org/2000/svg">
<circle cx="23.2228" cy="22.3605" r="22.3605" fill="#4D85AB"/>
<path d="M35.7168 27.2375C35.7168 31.7875 33.0043 34.5 28.4543 34.5H26.9668C26.2793 34.5 25.7168 33.9375 25.7168 33.25V26.0375C25.7168 25.7 25.9918 25.4125 26.3293 25.4125L28.5293 25.375C28.7043 25.3625 28.8543 25.2375 28.8918 25.0625L29.3293 22.675C29.3668 22.45 29.1918 22.2375 28.9543 22.2375L26.2918 22.275C25.9418 22.275 25.6668 22 25.6543 21.6625L25.6043 18.6C25.6043 18.4 25.7668 18.225 25.9793 18.225L28.9793 18.175C29.1918 18.175 29.3543 18.0125 29.3543 17.8L29.3043 14.8C29.3043 14.5875 29.1418 14.425 28.9293 14.425L25.5543 14.475C23.4793 14.5125 21.8293 16.2125 21.8668 18.2875L21.9293 21.725C21.9418 22.075 21.6668 22.35 21.3168 22.3625L19.8168 22.3875C19.6043 22.3875 19.4418 22.55 19.4418 22.7625L19.4793 25.1375C19.4793 25.35 19.6418 25.5125 19.8543 25.5125L21.3543 25.4875C21.7043 25.4875 21.9793 25.7625 21.9918 26.1L22.1043 33.225C22.1168 33.925 21.5543 34.5 20.8543 34.5H17.9793C13.4293 34.5 10.7168 31.7875 10.7168 27.225V16.7625C10.7168 12.2125 13.4293 9.5 17.9793 9.5H28.4543C33.0043 9.5 35.7168 12.2125 35.7168 16.7625V27.2375V27.2375Z" fill="white"/>
</svg>
