<svg width="16" height="16" viewBox="0 0 16 16" fill="none" xmlns="http://www.w3.org/2000/svg">
<path d="M1.54655 11.3064L3.63322 6.43309C4.33989 4.77976 5.63989 4.71309 6.51322 6.28643L7.77322 8.55976C8.41322 9.71309 9.60655 9.81309 10.4332 8.77976L10.5799 8.59309C11.4399 7.51309 12.6532 7.64643 13.2732 8.87976L14.4199 11.1798C15.2266 12.7798 14.0599 14.6664 12.2732 14.6664L3.76655 14.6664C2.03322 14.6664 0.866554 12.8998 1.54655 11.3064Z" stroke="#039703" stroke-width="1.5" stroke-linecap="round" stroke-linejoin="round"/>
<path d="M11.3533 5.33398C10.2487 5.33398 9.35327 4.43855 9.35327 3.33398C9.35327 2.22941 10.2487 1.33398 11.3533 1.33398C12.4578 1.33398 13.3533 2.22941 13.3533 3.33398C13.3533 4.43855 12.4578 5.33398 11.3533 5.33398Z" stroke="#039703" stroke-width="1.5" stroke-linecap="round" stroke-linejoin="round"/>
</svg>
