<svg width="45" height="45" viewBox="0 0 45 45" fill="none" xmlns="http://www.w3.org/2000/svg">
<circle cx="22.4" cy="22.3605" r="22.3605" fill="#4D85AB"/>
<path d="M23.5018 9.50129C24.414 9.49779 25.3261 9.50696 26.238 9.52879L26.4805 9.53754C26.7605 9.54754 27.0368 9.56004 27.3705 9.57504C28.7005 9.63754 29.608 9.84754 30.4043 10.1563C31.2293 10.4738 31.9243 10.9038 32.6193 11.5988C33.2548 12.2233 33.7466 12.9787 34.0605 13.8125C34.3693 14.6088 34.5793 15.5175 34.6418 16.8475C34.6568 17.18 34.6693 17.4575 34.6793 17.7375L34.6868 17.98C34.709 18.8915 34.7186 19.8033 34.7155 20.715L34.7168 21.6475V23.285C34.7199 24.1972 34.7103 25.1094 34.688 26.0213L34.6805 26.2638C34.6705 26.5438 34.658 26.82 34.643 27.1538C34.5805 28.4838 34.368 29.3913 34.0605 30.1875C33.7476 31.0222 33.2557 31.7783 32.6193 32.4025C31.9943 33.0379 31.2384 33.5297 30.4043 33.8438C29.608 34.1525 28.7005 34.3625 27.3705 34.425C27.0368 34.44 26.7605 34.4525 26.4805 34.4625L26.238 34.47C25.3261 34.4923 24.414 34.5018 23.5018 34.4988L22.5693 34.5H20.933C20.0209 34.5031 19.1087 34.4935 18.1968 34.4713L17.9543 34.4638C17.6576 34.453 17.3609 34.4405 17.0643 34.4263C15.7343 34.3638 14.8268 34.1513 14.0293 33.8438C13.1952 33.5305 12.4396 33.0386 11.8155 32.4025C11.1794 31.7779 10.6871 31.022 10.373 30.1875C10.0643 29.3913 9.8543 28.4838 9.7918 27.1538C9.77788 26.8572 9.76538 26.5605 9.7543 26.2638L9.74805 26.0213C9.725 25.1094 9.71458 24.1972 9.7168 23.285V20.715C9.71331 19.8033 9.72248 18.8915 9.7443 17.98L9.75305 17.7375C9.76305 17.4575 9.77555 17.18 9.79055 16.8475C9.85305 15.5163 10.063 14.61 10.3718 13.8125C10.686 12.9783 11.1793 12.2231 11.8168 11.6C12.4404 10.9635 13.1955 10.4708 14.0293 10.1563C14.8268 9.84754 15.733 9.63754 17.0643 9.57504L17.9543 9.53754L18.1968 9.53129C19.1083 9.50826 20.02 9.49784 20.9318 9.50004L23.5018 9.50129ZM22.2168 15.7513C21.3887 15.7396 20.5665 15.8926 19.798 16.2014C19.0295 16.5102 18.3301 16.9686 17.7404 17.5501C17.1506 18.1316 16.6823 18.8245 16.3627 19.5885C16.043 20.3525 15.8784 21.1725 15.8784 22.0007C15.8784 22.8289 16.043 23.6488 16.3627 24.4128C16.6823 25.1769 17.1506 25.8698 17.7404 26.4512C18.3301 27.0327 19.0295 27.4912 19.798 27.8C20.5665 28.1088 21.3887 28.2618 22.2168 28.25C23.8744 28.25 25.4641 27.5916 26.6362 26.4195C27.8083 25.2474 28.4668 23.6576 28.4668 22C28.4668 20.3424 27.8083 18.7527 26.6362 17.5806C25.4641 16.4085 23.8744 15.7513 22.2168 15.7513ZM22.2168 18.2513C22.7149 18.2421 23.2099 18.3323 23.6728 18.5166C24.1357 18.7008 24.5572 18.9755 24.9128 19.3245C25.2683 19.6735 25.5508 20.0898 25.7436 20.5492C25.9364 21.0086 26.0358 21.5018 26.0359 22C26.036 22.4983 25.9368 22.9915 25.7441 23.4509C25.5514 23.9104 25.2691 24.3268 24.9137 24.676C24.5582 25.0251 24.1368 25.2999 23.674 25.4843C23.2111 25.6687 22.7162 25.7591 22.218 25.75C21.2235 25.75 20.2697 25.355 19.5664 24.6517C18.8631 23.9484 18.468 22.9946 18.468 22C18.468 21.0055 18.8631 20.0517 19.5664 19.3484C20.2697 18.6451 21.2235 18.25 22.218 18.25L22.2168 18.2513ZM28.7793 13.8763C28.376 13.8924 27.9947 14.064 27.7151 14.355C27.4354 14.646 27.2793 15.034 27.2793 15.4375C27.2793 15.8411 27.4354 16.2291 27.7151 16.5201C27.9947 16.8111 28.376 16.9827 28.7793 16.9988C29.1937 16.9988 29.5911 16.8342 29.8842 16.5411C30.1772 16.2481 30.3418 15.8507 30.3418 15.4363C30.3418 15.0219 30.1772 14.6245 29.8842 14.3314C29.5911 14.0384 29.1937 13.8738 28.7793 13.8738V13.8763Z" fill="white"/>
</svg>
