<svg width="22" height="22" viewBox="0 0 22 22" fill="none" xmlns="http://www.w3.org/2000/svg">
<path fill-rule="evenodd" clip-rule="evenodd" d="M9.7334 9.06786H12.0443V10.1039C12.3772 9.50802 13.2309 8.97266 14.5133 8.97266C16.9717 8.97266 17.5554 10.1587 17.5554 12.3349V16.3652H15.0665V12.8305C15.0665 11.5912 14.7336 10.8923 13.8861 10.8923C12.7107 10.8923 12.2223 11.6455 12.2223 12.8299V16.3652H9.7334V9.06786Z" fill="#E3E4E6" fill-opacity="0.55"/>
<path fill-rule="evenodd" clip-rule="evenodd" d="M5.46558 16.27H7.95447V8.97266H5.46558V16.27Z" fill="#E3E4E6" fill-opacity="0.55"/>
<path fill-rule="evenodd" clip-rule="evenodd" d="M8.31093 6.59402C8.31102 6.78177 8.26965 6.96767 8.18921 7.14091C8.10878 7.31414 7.99089 7.47126 7.8424 7.60314C7.54149 7.87229 7.13419 8.02294 6.70995 8.02202C6.28646 8.02176 5.8801 7.87149 5.57875 7.6037C5.43079 7.47138 5.3133 7.31408 5.23301 7.14082C5.15272 6.96756 5.1112 6.78174 5.11084 6.59402C5.11084 6.2149 5.27884 5.85202 5.57937 5.58434C5.88046 5.31618 6.28699 5.16585 6.71057 5.16602C7.13493 5.16602 7.54186 5.31666 7.8424 5.58434C8.14231 5.85202 8.31093 6.2149 8.31093 6.59402Z" fill="#E3E4E6" fill-opacity="0.55"/>
</svg>
