<svg width="22" height="25" viewBox="0 0 22 25" fill="none" xmlns="http://www.w3.org/2000/svg">
<g filter="url(#filter0_d_8_10912)">
<path d="M16.8888 8.92188V13.988C16.8888 14.5045 16.6912 15.0015 16.3365 15.377C15.9817 15.7524 15.4967 15.9779 14.981 16.0071L14.8666 16.0102H6.46656C5.95003 16.0103 5.45306 15.8126 5.07761 15.4579C4.70216 15.1032 4.47669 14.6182 4.44745 14.1025L4.44434 13.988V8.92188L10.45 12.0678C10.5168 12.1028 10.5911 12.1211 10.6666 12.1211C10.742 12.1211 10.8163 12.1028 10.8831 12.0678L16.8888 8.92188Z" fill="#E3E4E6" fill-opacity="0.55"/>
<path d="M6.46661 6.05469H14.8666C15.3679 6.05463 15.8513 6.24073 16.2231 6.5769C16.5949 6.91307 16.8286 7.37534 16.8789 7.87407L10.6666 11.1283L4.45435 7.87407C4.50258 7.39515 4.72007 6.94914 5.0677 6.61622C5.41534 6.2833 5.87033 6.08529 6.35088 6.0578L6.46661 6.05469H14.8666H6.46661Z" fill="#E3E4E6" fill-opacity="0.55"/>
</g>
<defs>
<filter id="filter0_d_8_10912" x="-4" y="0.277344" width="29.3333" height="29.334" filterUnits="userSpaceOnUse" color-interpolation-filters="sRGB">
<feFlood flood-opacity="0" result="BackgroundImageFix"/>
<feColorMatrix in="SourceAlpha" type="matrix" values="0 0 0 0 0 0 0 0 0 0 0 0 0 0 0 0 0 0 127 0" result="hardAlpha"/>
<feOffset dy="4"/>
<feGaussianBlur stdDeviation="2"/>
<feComposite in2="hardAlpha" operator="out"/>
<feColorMatrix type="matrix" values="0 0 0 0 0 0 0 0 0 0 0 0 0 0 0 0 0 0 0.25 0"/>
<feBlend mode="normal" in2="BackgroundImageFix" result="effect1_dropShadow_8_10912"/>
<feBlend mode="normal" in="SourceGraphic" in2="effect1_dropShadow_8_10912" result="shape"/>
</filter>
</defs>
</svg>
