<svg width="30" height="30" viewBox="0 0 30 30" fill="none" xmlns="http://www.w3.org/2000/svg">
<path d="M15 8.05078V12.2133" stroke="#292D32" stroke-width="1.5" stroke-miterlimit="10" stroke-linecap="round"/>
<path d="M15.0251 2.5C10.4251 2.5 6.70012 6.225 6.70012 10.825V13.45C6.70012 14.3 6.35012 15.575 5.91262 16.3L4.32512 18.95C3.35012 20.5875 4.02512 22.4125 5.82512 23.0125C11.8001 25 18.2626 25 24.2376 23.0125C25.9251 22.45 26.6501 20.475 25.7376 18.95L24.1501 16.3C23.7126 15.575 23.3626 14.2875 23.3626 13.45V10.825C23.3501 6.25 19.6001 2.5 15.0251 2.5Z" stroke="#292D32" stroke-width="1.5" stroke-miterlimit="10" stroke-linecap="round"/>
<path d="M19.1624 23.5254C19.1624 25.8129 17.2874 27.6879 14.9999 27.6879C13.8624 27.6879 12.8124 27.2129 12.0624 26.4629C11.3124 25.7129 10.8374 24.6629 10.8374 23.5254" stroke="#292D32" stroke-width="1.5" stroke-miterlimit="10"/>
</svg>
