<svg width="30" height="30" viewBox="0 0 30 30" fill="none" xmlns="http://www.w3.org/2000/svg">
<path d="M16.5 17.9996C16.5 19.3246 15.925 20.5246 15 21.3496C14.2 22.0746 13.15 22.4996 12 22.4996C9.51247 22.4996 7.5 20.4871 7.5 17.9996C7.5 15.9246 8.91253 14.1746 10.8125 13.6621C11.325 14.9621 12.4375 15.9746 13.8125 16.3496C14.1875 16.4496 14.5875 16.5121 15 16.5121C15.4125 16.5121 15.8125 16.4621 16.1875 16.3496C16.3875 16.8496 16.5 17.4121 16.5 17.9996Z" stroke="#039703" stroke-width="2" stroke-linecap="round" stroke-linejoin="round"/>
<path d="M19.4999 12C19.4999 12.5875 19.3874 13.15 19.1874 13.6625C18.6749 14.9625 17.5625 15.975 16.1875 16.35C15.8125 16.45 15.4125 16.5125 15 16.5125C14.5875 16.5125 14.1875 16.4625 13.8125 16.35C12.4375 15.975 11.325 14.975 10.8125 13.6625C10.6125 13.15 10.5 12.5875 10.5 12C10.5 9.5125 12.5125 7.5 15 7.5C17.4875 7.5 19.4999 9.5125 19.4999 12Z" stroke="#039703" stroke-width="2" stroke-linecap="round" stroke-linejoin="round"/>
<path d="M22.5 18.0004C22.5 20.4879 20.4875 22.5004 18 22.5004C16.85 22.5004 15.8 22.0629 15 21.3504C15.925 20.5379 16.5 19.3379 16.5 18.0004C16.5 17.4129 16.3875 16.8504 16.1875 16.3379C17.5625 15.9629 18.675 14.9629 19.1875 13.6504C21.0875 14.1754 22.5 15.9254 22.5 18.0004Z" stroke="#039703" stroke-width="2" stroke-linecap="round" stroke-linejoin="round"/>
<path d="M11.25 27.5H18.75C25 27.5 27.5 25 27.5 18.75V11.25C27.5 5 25 2.5 18.75 2.5H11.25C5 2.5 2.5 5 2.5 11.25V18.75C2.5 25 5 27.5 11.25 27.5Z" stroke="#039703" stroke-width="2" stroke-linecap="round" stroke-linejoin="round"/>
</svg>
