<svg width="45" height="45" viewBox="0 0 45 45" fill="none" xmlns="http://www.w3.org/2000/svg">
<circle cx="22.5773" cy="22.3605" r="22.3605" fill="#4D85AB"/>
<path d="M35.2918 14.5C34.3293 14.9375 33.2918 15.225 32.2168 15.3625C33.3168 14.7 34.1668 13.65 34.5668 12.3875C33.5293 13.0125 32.3793 13.45 31.1668 13.7C30.1793 12.625 28.7918 12 27.2168 12C24.2793 12 21.8793 14.4 21.8793 17.3625C21.8793 17.7875 21.9293 18.2 22.0168 18.5875C17.5668 18.3625 13.6043 16.225 10.9668 12.9875C10.5043 13.775 10.2418 14.7 10.2418 15.675C10.2418 17.5375 11.1793 19.1875 12.6293 20.125C11.7418 20.125 10.9168 19.875 10.1918 19.5V19.5375C10.1918 22.1375 12.0418 24.3125 14.4918 24.8C13.7052 25.0153 12.8794 25.0452 12.0793 24.8875C12.4188 25.9531 13.0837 26.8855 13.9806 27.5537C14.8774 28.2218 15.9611 28.5921 17.0793 28.6125C15.1838 30.113 12.8343 30.9241 10.4168 30.9125C9.9918 30.9125 9.5668 30.8875 9.1418 30.8375C11.5168 32.3625 14.3418 33.25 17.3668 33.25C27.2168 33.25 32.6293 25.075 32.6293 17.9875C32.6293 17.75 32.6293 17.525 32.6168 17.2875C33.6668 16.5375 34.5668 15.5875 35.2918 14.5Z" fill="white"/>
</svg>
