<svg width="46" height="45" viewBox="0 0 46 45" fill="none" xmlns="http://www.w3.org/2000/svg">
<circle cx="22.8685" cy="22.3605" r="22.3605" fill="#4D85AB"/>
<path d="M35.7939 15.6748C35.6445 15.1183 35.3515 14.6108 34.9443 14.203C34.5371 13.7953 34.03 13.5017 33.4736 13.3516C31.4258 12.8008 23.2168 12.8008 23.2168 12.8008C23.2168 12.8008 15.0078 12.8008 12.96 13.3486C12.4034 13.4983 11.896 13.7917 11.4887 14.1995C11.0814 14.6073 10.7886 15.1151 10.6396 15.6719C10.0918 17.7227 10.0918 22 10.0918 22C10.0918 22 10.0918 26.2773 10.6396 28.3252C10.9414 29.4561 11.832 30.3467 12.96 30.6484C15.0078 31.1992 23.2168 31.1992 23.2168 31.1992C23.2168 31.1992 31.4258 31.1992 33.4736 30.6484C34.6045 30.3467 35.4922 29.4561 35.7939 28.3252C36.3418 26.2773 36.3418 22 36.3418 22C36.3418 22 36.3418 17.7227 35.7939 15.6748ZM20.6094 25.9258V18.0742L27.4062 21.9707L20.6094 25.9258Z" fill="white"/>
</svg>
